<svg width="54" height="43" viewBox="0 0 54 43" fill="none" xmlns="http://www.w3.org/2000/svg">
<path d="M47.52 42.1197H53.98C53.98 42.1197 40.48 31.1797 26.99 31.1797C13.5 31.1797 0 42.1197 0 42.1197H6.45999C10.11 39.9397 18.55 35.4997 26.99 35.4997C35.43 35.4997 43.88 39.9397 47.52 42.1197Z" fill="#33425A"/>
<path d="M47.52 35.8799H53.98C53.98 35.8799 40.48 24.9399 26.99 24.9399C13.5 24.9399 0 35.8799 0 35.8799H6.45999C10.11 33.6999 18.55 29.2599 26.99 29.2599C35.43 29.2599 43.88 33.6999 47.52 35.8799Z" fill="#33425A"/>
<path d="M47.52 29.7501H53.98C53.98 29.7501 40.48 18.8101 26.99 18.8101C13.5 18.8101 0 29.7501 0 29.7501H6.45999C10.11 27.5701 18.55 23.1301 26.99 23.1301C35.43 23.1301 43.88 27.5701 47.52 29.7501Z" fill="#33425A"/>
<path d="M6.45999 0H0C0 0 13.5 10.94 26.99 10.94C40.48 10.94 53.98 0 53.98 0H47.52C43.87 2.19 35.43 6.62 26.99 6.62C18.55 6.62 10.1 2.18 6.45999 0Z" fill="#FBF9F6"/>
<path d="M6.45999 6.23975H0C0 6.23975 13.5 17.1797 26.99 17.1797C40.48 17.1797 53.98 6.23975 53.98 6.23975H47.52C43.87 8.42975 35.43 12.8597 26.99 12.8597C18.55 12.8597 10.1 8.41975 6.45999 6.23975Z" fill="#FBF9F6"/>
<path d="M6.45999 12.3701H0C0 12.3701 13.5 23.3101 26.99 23.3101C40.48 23.3101 53.98 12.3701 53.98 12.3701H47.52C43.87 14.5601 35.43 18.9901 26.99 18.9901C18.55 18.9901 10.1 14.5501 6.45999 12.3701Z" fill="#FBF9F6"/>
</svg>
