<svg width="54" height="43" viewBox="0 0 54 43" fill="none" xmlns="http://www.w3.org/2000/svg">
<path d="M47.37 42.2498H53.81C53.81 42.2498 40.36 31.3398 26.91 31.3398C13.46 31.3398 0.0100098 42.2498 0.0100098 42.2498H6.45001C10.08 40.0698 18.5 35.6498 26.91 35.6498C35.32 35.6498 43.74 40.0698 47.37 42.2498Z" fill="#BCB095"/>
<path d="M47.37 36.0198H53.81C53.81 36.0198 40.36 25.1099 26.91 25.1099C13.46 25.1099 0.0100098 36.0198 0.0100098 36.0198H6.45001C10.08 33.8398 18.5 29.4199 26.91 29.4199C35.32 29.4199 43.74 33.8398 47.37 36.0198Z" fill="#BCB095"/>
<path d="M47.37 29.91H53.81C53.81 29.91 40.36 19 26.91 19C13.46 19 0.0100098 29.91 0.0100098 29.91H6.45001C10.08 27.73 18.5 23.31 26.91 23.31C35.32 23.31 43.74 27.73 47.37 29.91Z" fill="#BCB095"/>
<path d="M6.44 0H0C0 0 13.45 10.91 26.9 10.91C40.35 10.91 53.8 0 53.8 0H47.36C43.73 2.18 35.31 6.60001 26.9 6.60001C18.49 6.60001 10.07 2.18 6.44 0Z" fill="#33425A"/>
<path d="M6.44 6.22998H0C0 6.22998 13.45 17.14 26.9 17.14C40.35 17.14 53.8 6.22998 53.8 6.22998H47.36C43.73 8.40998 35.31 12.83 26.9 12.83C18.49 12.83 10.07 8.40998 6.44 6.22998Z" fill="#33425A"/>
<path d="M6.44 12.3398H0C0 12.3398 13.45 23.2498 26.9 23.2498C40.35 23.2498 53.8 12.3398 53.8 12.3398H47.36C43.73 14.5198 35.31 18.9398 26.9 18.9398C18.49 18.9398 10.07 14.5198 6.44 12.3398Z" fill="#33425A"/>
</svg>
