<?xml version="1.0" encoding="UTF-8"?>
<svg id="Layer_1" data-name="Layer 1" xmlns="http://www.w3.org/2000/svg" xmlns:xlink="http://www.w3.org/1999/xlink" version="1.1" viewBox="0 0 612 792">
  <defs>
    <style>
      .cls-1 {
        clip-path: url(#clippath);
      }

      .cls-2 {
        fill: none;
      }

      .cls-2, .cls-3, .cls-4, .cls-5 {
        stroke-width: 0px;
      }

      .cls-3 {
        fill: #33425a;
      }

      .cls-4 {
        fill: #bcb095;
      }

      .cls-5 {
        fill: #fbf9f6;
      }
    </style>
    <clipPath id="clippath">
      <rect class="cls-2" width="612" height="792"/>
    </clipPath>
  </defs>
  <g class="cls-1">
    <path class="cls-4" d="M326.99,417.56h6.44s-13.45-10.91-26.9-10.91-26.9,10.91-26.9,10.91h6.44c3.63-2.18,12.05-6.6,20.46-6.6s16.83,4.42,20.46,6.6"/>
    <path class="cls-4" d="M326.99,411.33h6.44s-13.45-10.91-26.9-10.91-26.9,10.91-26.9,10.91h6.44c3.63-2.18,12.05-6.6,20.46-6.6s16.83,4.42,20.46,6.6"/>
    <path class="cls-4" d="M326.99,405.22h6.44s-13.45-10.91-26.9-10.91-26.9,10.91-26.9,10.91h6.44c3.63-2.18,12.05-6.6,20.46-6.6s16.83,4.42,20.46,6.6"/>
    <path class="cls-3" d="M286.06,375.31h-6.44s13.45,10.91,26.9,10.91,26.9-10.91,26.9-10.91h-6.44c-3.63,2.18-12.05,6.6-20.46,6.6s-16.83-4.42-20.46-6.6"/>
    <path class="cls-3" d="M286.06,381.54h-6.44s13.45,10.91,26.9,10.91,26.9-10.91,26.9-10.91h-6.44c-3.63,2.18-12.05,6.6-20.46,6.6s-16.83-4.42-20.46-6.6"/>
    <path class="cls-3" d="M286.06,387.65h-6.44s13.45,10.91,26.9,10.91,26.9-10.91,26.9-10.91h-6.44c-3.63,2.18-12.05,6.6-20.46,6.6s-16.83-4.42-20.46-6.6"/>
    <path class="cls-5" d="M280.05,333.89h-8.33s17.4,14.11,34.81,14.11,34.81-14.11,34.81-14.11h-8.33c-4.7,2.82-15.59,8.54-26.48,8.54s-21.77-5.72-26.48-8.54"/>
    <path class="cls-4" d="M293.28,306.14h-4.17s8.7,7.06,17.4,7.06,17.4-7.06,17.4-7.06h-4.17c-2.35,1.41-7.79,4.27-13.24,4.27s-10.89-2.86-13.24-4.27"/>
    <path class="cls-3" d="M327.14,539.6h6.46s-13.5-10.94-26.99-10.94-26.99,10.94-26.99,10.94h6.46c3.65-2.18,12.09-6.62,20.53-6.62s16.89,4.44,20.53,6.62"/>
    <path class="cls-3" d="M327.14,533.36h6.46s-13.5-10.94-26.99-10.94-26.99,10.94-26.99,10.94h6.46c3.65-2.18,12.09-6.62,20.53-6.62s16.89,4.44,20.53,6.62"/>
    <path class="cls-3" d="M327.14,527.23h6.46s-13.5-10.94-26.99-10.94-26.99,10.94-26.99,10.94h6.46c3.65-2.18,12.09-6.62,20.53-6.62s16.89,4.44,20.53,6.62"/>
    <path class="cls-5" d="M286.08,497.48h-6.46s13.5,10.94,26.99,10.94,26.99-10.94,26.99-10.94h-6.46c-3.65,2.19-12.09,6.62-20.53,6.62s-16.89-4.44-20.53-6.62"/>
    <path class="cls-5" d="M286.08,503.72h-6.46s13.5,10.94,26.99,10.94,26.99-10.94,26.99-10.94h-6.46c-3.65,2.19-12.09,6.62-20.53,6.62s-16.89-4.44-20.53-6.62"/>
    <path class="cls-5" d="M286.08,509.85h-6.46s13.5,10.94,26.99,10.94,26.99-10.94,26.99-10.94h-6.46c-3.65,2.19-12.09,6.62-20.53,6.62s-16.89-4.44-20.53-6.62"/>
    <path class="cls-4" d="M327.14,476.28h6.46s-13.5-10.94-26.99-10.94-26.99,10.94-26.99,10.94h6.46c3.65-2.18,12.09-6.62,20.53-6.62s16.89,4.44,20.53,6.62"/>
    <path class="cls-4" d="M327.14,470.04h6.46s-13.5-10.94-26.99-10.94-26.99,10.94-26.99,10.94h6.46c3.65-2.18,12.09-6.62,20.53-6.62s16.89,4.44,20.53,6.62"/>
    <path class="cls-4" d="M327.14,463.91h6.46s-13.5-10.94-26.99-10.94-26.99,10.94-26.99,10.94h6.46c3.65-2.18,12.09-6.62,20.53-6.62s16.89,4.44,20.53,6.62"/>
    <path class="cls-5" d="M286.08,434.16h-6.46s13.5,10.94,26.99,10.94,26.99-10.94,26.99-10.94h-6.46c-3.65,2.19-12.09,6.62-20.53,6.62s-16.89-4.44-20.53-6.62"/>
    <path class="cls-5" d="M286.08,440.41h-6.46s13.5,10.94,26.99,10.94,26.99-10.94,26.99-10.94h-6.46c-3.65,2.19-12.09,6.62-20.53,6.62s-16.89-4.44-20.53-6.62"/>
    <path class="cls-5" d="M286.08,446.54h-6.46s13.5,10.94,26.99,10.94,26.99-10.94,26.99-10.94h-6.46c-3.65,2.19-12.09,6.62-20.53,6.62s-16.89-4.44-20.53-6.62"/>
    <path class="cls-3" d="M293.28,278.4h-4.17s8.7,7.06,17.4,7.06,17.4-7.06,17.4-7.06h-4.17c-2.35,1.41-7.79,4.27-13.24,4.27s-10.89-2.86-13.24-4.27"/>
  </g>
</svg>