<svg width="54" height="43" viewBox="0 0 54 43" fill="none" xmlns="http://www.w3.org/2000/svg">
<path d="M6.46002 -6.10352e-05H3.05176e-05C3.05176e-05 -6.10352e-05 13.5001 10.9399 26.9901 10.9399C40.4801 10.9399 53.98 -6.10352e-05 53.98 -6.10352e-05H47.5201C43.87 2.17994 35.4301 6.61993 26.9901 6.61993C18.5501 6.61993 10.1 2.17994 6.46002 -6.10352e-05Z" fill="#33425A"/>
<path d="M6.46002 6.23969H3.05176e-05C3.05176e-05 6.23969 13.5001 17.1797 26.9901 17.1797C40.4801 17.1797 53.98 6.23969 53.98 6.23969H47.5201C43.87 8.41969 35.4301 12.8597 26.9901 12.8597C18.5501 12.8597 10.1 8.41969 6.46002 6.23969Z" fill="#33425A"/>
<path d="M6.46002 12.3696H3.05176e-05C3.05176e-05 12.3696 13.5001 23.3096 26.9901 23.3096C40.4801 23.3096 53.98 12.3696 53.98 12.3696H47.5201C43.87 14.5496 35.4301 18.9896 26.9901 18.9896C18.5501 18.9896 10.1 14.5496 6.46002 12.3696Z" fill="#33425A"/>
<path d="M47.5201 42.1196H53.98C53.98 42.1196 40.4801 31.1796 26.9901 31.1796C13.5001 31.1796 3.05176e-05 42.1196 3.05176e-05 42.1196H6.46002C10.11 39.9296 18.5501 35.4996 26.9901 35.4996C35.4301 35.4996 43.88 39.9396 47.5201 42.1196Z" fill="#FBF9F6"/>
<path d="M47.5201 35.8799H53.98C53.98 35.8799 40.4801 24.9399 26.9901 24.9399C13.5001 24.9399 3.05176e-05 35.8799 3.05176e-05 35.8799H6.46002C10.11 33.6899 18.5501 29.2599 26.9901 29.2599C35.4301 29.2599 43.88 33.6999 47.5201 35.8799Z" fill="#FBF9F6"/>
<path d="M47.5201 29.7495H53.98C53.98 29.7495 40.4801 18.8095 26.9901 18.8095C13.5001 18.8095 3.05176e-05 29.7495 3.05176e-05 29.7495H6.46002C10.11 27.5595 18.5501 23.1295 26.9901 23.1295C35.4301 23.1295 43.88 27.5695 47.5201 29.7495Z" fill="#FBF9F6"/>
</svg>
