<svg width="54" height="43" viewBox="0 0 54 43" fill="none" xmlns="http://www.w3.org/2000/svg">
<path d="M47.52 42.1197H53.98C53.98 42.1197 40.48 31.1797 26.99 31.1797C13.5 31.1797 0 42.1197 0 42.1197H6.45999C10.11 39.9397 18.55 35.4997 26.99 35.4997C35.43 35.4997 43.88 39.9397 47.52 42.1197Z" fill="#BCB095"/>
<path d="M47.52 35.8799H53.98C53.98 35.8799 40.48 24.9399 26.99 24.9399C13.5 24.9399 0 35.8799 0 35.8799H6.45999C10.11 33.6999 18.55 29.2599 26.99 29.2599C35.43 29.2599 43.88 33.6999 47.52 35.8799Z" fill="#BCB095"/>
<path d="M47.52 29.7496H53.98C53.98 29.7496 40.48 18.8096 26.99 18.8096C13.5 18.8096 0 29.7496 0 29.7496H6.45999C10.11 27.5696 18.55 23.1296 26.99 23.1296C35.43 23.1296 43.88 27.5696 47.52 29.7496Z" fill="#BCB095"/>
<path d="M6.45999 0H0C0 0 13.5 10.94 26.99 10.94C40.48 10.94 53.98 0 53.98 0H47.52C43.87 2.19 35.43 6.62 26.99 6.62C18.55 6.62 10.1 2.18 6.45999 0Z" fill="#FBF9F6"/>
<path d="M6.45999 6.25H0C0 6.25 13.5 17.19 26.99 17.19C40.48 17.19 53.98 6.25 53.98 6.25H47.52C43.87 8.44 35.43 12.87 26.99 12.87C18.55 12.87 10.1 8.43 6.45999 6.25Z" fill="#FBF9F6"/>
<path d="M6.45999 12.3799H0C0 12.3799 13.5 23.3199 26.99 23.3199C40.48 23.3199 53.98 12.3799 53.98 12.3799H47.52C43.87 14.5699 35.43 18.9999 26.99 18.9999C18.55 18.9999 10.1 14.5599 6.45999 12.3799Z" fill="#FBF9F6"/>
</svg>
